<?xml version="1.0" encoding="UTF-8"?><svg id="Layer_1" xmlns="http://www.w3.org/2000/svg" viewBox="0 0 486.19 742.08"><defs><style>.cls-1{fill:#231f20;isolation:isolate;opacity:.1;}.cls-1,.cls-2,.cls-3,.cls-4,.cls-5{stroke-width:0px;}.cls-2{fill:#578cad;}.cls-3{fill:#cae9f7;}.cls-4{fill:#ff9737;}.cls-5{fill:#90c8ec;}</style></defs><path class="cls-4" d="M194.91,566.18c-12.96,19.07-20.68,42.66-20.68,68.26,0,49.5,28.7,91.66,68.87,107.65,40.18-15.99,68.87-58.15,68.87-107.65,0-25.6-7.72-49.19-20.68-68.26h-96.38Z"/><path class="cls-1" d="M200.11,640.23c0-27.55,7.89-53.04,21.26-74.05h-26.47c-12.96,19.07-20.68,42.66-20.68,68.26,0,49.5,28.7,91.66,68.87,107.65.47-.19.93-.4,1.4-.59-27.05-23.8-44.38-60.31-44.38-101.26Z"/><path class="cls-2" d="M482.2,344.55l-117.5-116.77c-2.53-2.52-5.95-3.93-9.52-3.93h-224.17c-3.57,0-6.99,1.41-9.52,3.93L3.99,344.55c-2.55,2.54-3.99,5.98-3.99,9.58v167.86c0,7.46,6.05,13.51,13.51,13.51h459.17c7.46,0,13.51-6.05,13.51-13.51v-167.86c0-3.6-1.43-7.05-3.99-9.58Z"/><path class="cls-1" d="M26.44,530.44v-167.86c0-3.6,1.44-7.05,3.99-9.58l117.5-116.77c2.53-2.52,5.95-3.93,9.52-3.93h211.8l-4.54-4.52c-2.53-2.52-5.95-3.93-9.52-3.93h-224.17c-3.57,0-6.99,1.41-9.52,3.93L3.99,344.55c-2.55,2.54-3.99,5.98-3.99,9.58v167.86c0,7.46,6.05,13.51,13.51,13.51h13.92c-.64-1.56-.99-3.27-.99-5.07Z"/><path class="cls-3" d="M250.26,1.79c-4.48-2.39-9.85-2.39-14.33,0-70.24,37.54-113.87,110.38-113.87,190.09v356.78c0,17.68,14.38,32.05,32.06,32.05h177.95c17.68,0,32.05-14.38,32.05-32.05V191.88c0-79.71-43.63-152.55-113.87-190.09Z"/><path class="cls-5" d="M122.06,499.89v48.78c0,17.7,14.35,32.05,32.06,32.05h177.95c17.7,0,32.05-14.35,32.05-32.05v-48.78H122.06Z"/><circle class="cls-2" cx="243.1" cy="231.87" r="52.53"/><path class="cls-1" d="M148.5,548.67v-4.04c-.78-2.76-1.23-5.67-1.23-8.68V179.17C147.28,106.6,183.45,39.74,242.93,0c-2.41.03-4.81.61-7,1.78-70.24,37.54-113.87,110.38-113.87,190.09v356.78c0,17.68,14.38,32.05,32.06,32.05h26.44c-17.68,0-32.05-14.38-32.05-32.05Z"/><path class="cls-1" d="M217,231.87c0-24.45,16.7-44.99,39.32-50.85-4.22-1.09-8.65-1.68-13.22-1.68-29.01,0-52.54,23.52-52.54,52.53s23.52,52.53,52.54,52.53c4.57,0,9-.58,13.22-1.68-22.62-5.86-39.32-26.4-39.32-50.85Z"/><path class="cls-2" d="M243.1,630.09c-6.99,0-12.67-5.67-12.67-12.67v-163.84c0-6.99,5.67-12.67,12.67-12.67s12.67,5.67,12.67,12.67v163.84c0,6.99-5.67,12.66-12.67,12.66Z"/></svg>